<mxfile host="Electron" modified="2025-09-24T19:18:07.492Z" agent="Mozilla/5.0 (Windows NT 10.0; Win64; x64) AppleWebKit/537.36 (KHTML, like Gecko) draw.io/22.1.2 Chrome/114.0.5735.289 Electron/25.9.4 Safari/537.36" etag="R136ot_z7JhjZMMRvyvG" version="22.1.2" type="device" pages="3">
  <diagram id="joppanWUCLBJWPmbolZm" name="event_representation_class_diagram">
    <mxGraphModel dx="1434" dy="844" grid="1" gridSize="10" guides="1" tooltips="1" connect="1" arrows="1" fold="1" page="1" pageScale="1" pageWidth="850" pageHeight="1100" math="0" shadow="0">
      <root>
        <mxCell id="0" />
        <mxCell id="1" parent="0" />
        <mxCell id="ezcSMSSMCF50DlXC_98u-1" value="struct ecu_event" style="rounded=0;whiteSpace=wrap;html=1;" parent="1" vertex="1">
          <mxGeometry x="280" y="380" width="240" height="60" as="geometry" />
        </mxCell>
        <mxCell id="ezcSMSSMCF50DlXC_98u-4" style="edgeStyle=orthogonalEdgeStyle;rounded=0;orthogonalLoop=1;jettySize=auto;html=1;entryX=0.5;entryY=1;entryDx=0;entryDy=0;endArrow=block;endFill=0;endSize=16;" parent="1" source="ezcSMSSMCF50DlXC_98u-3" target="ezcSMSSMCF50DlXC_98u-1" edge="1">
          <mxGeometry relative="1" as="geometry" />
        </mxCell>
        <mxCell id="ezcSMSSMCF50DlXC_98u-3" value="struct user_event1" style="rounded=0;whiteSpace=wrap;html=1;" parent="1" vertex="1">
          <mxGeometry x="280" y="520" width="240" height="60" as="geometry" />
        </mxCell>
      </root>
    </mxGraphModel>
  </diagram>
  <diagram id="igfbhiOf1pfyDcM4Ws80" name="event_representation_valid_upcast">
    <mxGraphModel dx="989" dy="582" grid="1" gridSize="10" guides="1" tooltips="1" connect="1" arrows="1" fold="1" page="1" pageScale="1" pageWidth="850" pageHeight="1100" math="0" shadow="0">
      <root>
        <mxCell id="0" />
        <mxCell id="1" parent="0" />
        <mxCell id="5OyvZfD0A6uMTfFdMS2Y-5" value="" style="rounded=0;whiteSpace=wrap;html=1;" vertex="1" parent="1">
          <mxGeometry x="360" y="400" width="160" height="60" as="geometry" />
        </mxCell>
        <mxCell id="5OyvZfD0A6uMTfFdMS2Y-6" value="" style="endArrow=none;html=1;rounded=0;entryX=1;entryY=0.5;entryDx=0;entryDy=0;exitX=0;exitY=0.5;exitDx=0;exitDy=0;" edge="1" parent="1" source="5OyvZfD0A6uMTfFdMS2Y-5" target="5OyvZfD0A6uMTfFdMS2Y-5">
          <mxGeometry width="50" height="50" relative="1" as="geometry">
            <mxPoint x="440" y="470" as="sourcePoint" />
            <mxPoint x="490" y="420" as="targetPoint" />
          </mxGeometry>
        </mxCell>
        <mxCell id="5OyvZfD0A6uMTfFdMS2Y-7" value="struct ecu_event base;" style="text;html=1;strokeColor=none;fillColor=none;align=center;verticalAlign=middle;whiteSpace=wrap;rounded=0;" vertex="1" parent="1">
          <mxGeometry x="375" y="400" width="130" height="30" as="geometry" />
        </mxCell>
        <mxCell id="5OyvZfD0A6uMTfFdMS2Y-8" value="int data;" style="text;html=1;strokeColor=none;fillColor=none;align=center;verticalAlign=middle;whiteSpace=wrap;rounded=0;" vertex="1" parent="1">
          <mxGeometry x="375" y="430" width="130" height="30" as="geometry" />
        </mxCell>
        <mxCell id="5OyvZfD0A6uMTfFdMS2Y-9" value="" style="shape=curlyBracket;whiteSpace=wrap;html=1;rounded=1;labelPosition=left;verticalLabelPosition=middle;align=right;verticalAlign=middle;" vertex="1" parent="1">
          <mxGeometry x="330" y="400" width="20" height="60" as="geometry" />
        </mxCell>
        <mxCell id="5OyvZfD0A6uMTfFdMS2Y-10" value="struct user_event0" style="text;html=1;strokeColor=none;fillColor=none;align=center;verticalAlign=middle;whiteSpace=wrap;rounded=0;" vertex="1" parent="1">
          <mxGeometry x="210" y="415" width="120" height="30" as="geometry" />
        </mxCell>
        <mxCell id="5OyvZfD0A6uMTfFdMS2Y-13" value="" style="endArrow=classic;html=1;rounded=0;" edge="1" parent="1">
          <mxGeometry width="50" height="50" relative="1" as="geometry">
            <mxPoint x="524" y="400" as="sourcePoint" />
            <mxPoint x="560" y="400" as="targetPoint" />
          </mxGeometry>
        </mxCell>
        <mxCell id="5OyvZfD0A6uMTfFdMS2Y-14" value="(struct ecu_event *)&amp;amp;event == &amp;amp;event.base" style="text;html=1;strokeColor=none;fillColor=none;align=center;verticalAlign=middle;whiteSpace=wrap;rounded=0;" vertex="1" parent="1">
          <mxGeometry x="540" y="370" width="240" height="30" as="geometry" />
        </mxCell>
        <mxCell id="jgjOuQZC8HlippKkOpSO-2" value="" style="verticalLabelPosition=bottom;verticalAlign=top;html=1;shape=mxgraph.basic.tick;fillColor=#00FF00;" vertex="1" parent="1">
          <mxGeometry x="530" y="410" width="40" height="40" as="geometry" />
        </mxCell>
      </root>
    </mxGraphModel>
  </diagram>
  <diagram id="RwfrrUfQ25Fs64N7DOM9" name="event_representation_invalid_upcast">
    <mxGraphModel dx="819" dy="482" grid="1" gridSize="10" guides="1" tooltips="1" connect="1" arrows="1" fold="1" page="1" pageScale="1" pageWidth="850" pageHeight="1100" math="0" shadow="0">
      <root>
        <mxCell id="0" />
        <mxCell id="1" parent="0" />
        <mxCell id="PGpUnPX5KXdeQx75Dc2c-1" value="" style="rounded=0;whiteSpace=wrap;html=1;" vertex="1" parent="1">
          <mxGeometry x="360" y="400" width="160" height="60" as="geometry" />
        </mxCell>
        <mxCell id="PGpUnPX5KXdeQx75Dc2c-2" value="" style="endArrow=none;html=1;rounded=0;entryX=1;entryY=0.5;entryDx=0;entryDy=0;exitX=0;exitY=0.5;exitDx=0;exitDy=0;" edge="1" parent="1" source="PGpUnPX5KXdeQx75Dc2c-1" target="PGpUnPX5KXdeQx75Dc2c-1">
          <mxGeometry width="50" height="50" relative="1" as="geometry">
            <mxPoint x="440" y="470" as="sourcePoint" />
            <mxPoint x="490" y="420" as="targetPoint" />
          </mxGeometry>
        </mxCell>
        <mxCell id="PGpUnPX5KXdeQx75Dc2c-3" value="struct ecu_event base;" style="text;html=1;strokeColor=none;fillColor=none;align=center;verticalAlign=middle;whiteSpace=wrap;rounded=0;" vertex="1" parent="1">
          <mxGeometry x="375" y="430" width="130" height="30" as="geometry" />
        </mxCell>
        <mxCell id="PGpUnPX5KXdeQx75Dc2c-4" value="int data;" style="text;html=1;strokeColor=none;fillColor=none;align=center;verticalAlign=middle;whiteSpace=wrap;rounded=0;" vertex="1" parent="1">
          <mxGeometry x="375" y="400" width="130" height="30" as="geometry" />
        </mxCell>
        <mxCell id="PGpUnPX5KXdeQx75Dc2c-7" value="" style="endArrow=classic;html=1;rounded=0;" edge="1" parent="1">
          <mxGeometry width="50" height="50" relative="1" as="geometry">
            <mxPoint x="524" y="400" as="sourcePoint" />
            <mxPoint x="560" y="400" as="targetPoint" />
          </mxGeometry>
        </mxCell>
        <mxCell id="PGpUnPX5KXdeQx75Dc2c-8" value="(struct ecu_event *)&amp;amp;event == &amp;amp;event.data" style="text;html=1;strokeColor=none;fillColor=none;align=center;verticalAlign=middle;whiteSpace=wrap;rounded=0;" vertex="1" parent="1">
          <mxGeometry x="550" y="370" width="230" height="30" as="geometry" />
        </mxCell>
        <mxCell id="PGpUnPX5KXdeQx75Dc2c-9" value="" style="verticalLabelPosition=bottom;verticalAlign=top;html=1;shape=mxgraph.basic.x;fillColor=#FF1900;" vertex="1" parent="1">
          <mxGeometry x="540" y="410" width="40" height="40" as="geometry" />
        </mxCell>
        <mxCell id="HYpaYQ5695WKuwMlmpCu-1" value="" style="shape=curlyBracket;whiteSpace=wrap;html=1;rounded=1;labelPosition=left;verticalLabelPosition=middle;align=right;verticalAlign=middle;" vertex="1" parent="1">
          <mxGeometry x="330" y="400" width="20" height="60" as="geometry" />
        </mxCell>
        <mxCell id="HYpaYQ5695WKuwMlmpCu-2" value="struct invalid_event" style="text;html=1;strokeColor=none;fillColor=none;align=center;verticalAlign=middle;whiteSpace=wrap;rounded=0;" vertex="1" parent="1">
          <mxGeometry x="210" y="415" width="120" height="30" as="geometry" />
        </mxCell>
      </root>
    </mxGraphModel>
  </diagram>
</mxfile>
